<svg xmlns="http://www.w3.org/2000/svg" viewBox="0 0 284.79 69.06"><defs><style>.cls-1{fill:#80bf1f;}.cls-2,.cls-3{fill:none;stroke:#80bf1f;stroke-width:1.86px;}.cls-2{stroke-miterlimit:10;}.cls-3{stroke-linecap:round;stroke-linejoin:round;}</style></defs><title>Asset 14pantone</title><g id="Layer_2" data-name="Layer 2"><g id="Layer_1-2" data-name="Layer 1"><path class="cls-1" d="M168.84,12.36a8.37,8.37,0,0,1-8.4,8.65h-6.8a.56.56,0,0,1-.62-.61V4.33a.56.56,0,0,1,.62-.62h6.8A8.38,8.38,0,0,1,168.84,12.36Zm-3.8,0c0-3-1.88-4.84-4.6-4.84H157v9.69h3.46C163.16,17.21,165,15.33,165,12.36Z" transform="translate(0 -2.61)"/><path class="cls-1" d="M183.31,14.83c0,.33,0,.62-.05.92a.61.61,0,0,1-.67.57h-8.25a2.79,2.79,0,0,0,2.89,2.05,2.94,2.94,0,0,0,1.82-.62,1.14,1.14,0,0,1,.77-.32l2.37,0c.45,0,.7.29.5.69a5.67,5.67,0,0,1-5.51,3.26,6.35,6.35,0,0,1-6.73-6.53,6.38,6.38,0,0,1,6.63-6.52A6.2,6.2,0,0,1,183.31,14.83Zm-3.69-1.33a2.48,2.48,0,0,0-2.57-1.9,2.62,2.62,0,0,0-2.73,1.9Z" transform="translate(0 -2.61)"/><path class="cls-1" d="M208.4,12.17V20.4a.56.56,0,0,1-.62.61h-2.47a.56.56,0,0,1-.62-.61V19a6.22,6.22,0,0,1-5.26,2.37c-4.82,0-8.51-3.9-8.51-9a8.77,8.77,0,0,1,9-9A8.6,8.6,0,0,1,208.2,9c.15.42-.07.69-.52.69h-2.92a.74.74,0,0,1-.71-.44,5,5,0,0,0-4.13-2,4.78,4.78,0,0,0-5,5.14c0,3.34,2.12,5.39,5,5.39A4.38,4.38,0,0,0,204.34,15h-3.73a.56.56,0,0,1-.62-.62V12.17a.56.56,0,0,1,.62-.62h7.17A.56.56,0,0,1,208.4,12.17Z" transform="translate(0 -2.61)"/><path class="cls-1" d="M223.11,14.83a9,9,0,0,1-.05.92.61.61,0,0,1-.67.57h-8.25A2.8,2.8,0,0,0,217,18.37a3,3,0,0,0,1.83-.62,1.09,1.09,0,0,1,.76-.32l2.38,0c.44,0,.69.29.49.69A5.66,5.66,0,0,1,217,21.36a6.35,6.35,0,0,1-6.72-6.53,6.37,6.37,0,0,1,6.62-6.52A6.2,6.2,0,0,1,223.11,14.83Zm-3.69-1.33a2.46,2.46,0,0,0-2.56-1.9,2.63,2.63,0,0,0-2.74,1.9Z" transform="translate(0 -2.61)"/><path class="cls-1" d="M236,13.18V20.4a.56.56,0,0,1-.62.61H233a.56.56,0,0,1-.62-.61V13.5a1.56,1.56,0,0,0-1.65-1.78c-1.12,0-1.81.62-1.81,2.08v6.6a.56.56,0,0,1-.62.61h-2.47a.56.56,0,0,1-.62-.61V9.27a.57.57,0,0,1,.62-.62h2.47a.56.56,0,0,1,.62.62v.51a3.66,3.66,0,0,1,3.22-1.47C234.38,8.31,236,10.09,236,13.18Z" transform="translate(0 -2.61)"/><path class="cls-1" d="M245.11,9.27V11.6a.55.55,0,0,1-.61.61h-1.36V20.4a.56.56,0,0,1-.62.61h-2.47a.56.56,0,0,1-.62-.61V12.21h-1.36a.56.56,0,0,1-.62-.61V9.27a.56.56,0,0,1,.62-.62h1.36V5.32a.56.56,0,0,1,.62-.62h2.47a.56.56,0,0,1,.62.62V8.65h1.36A.56.56,0,0,1,245.11,9.27Z" transform="translate(0 -2.61)"/><path class="cls-1" d="M256.51,17.31c0,2.84-2.42,4.05-5.14,4.05-2.52,0-4.8-1.14-5.09-3.76a.53.53,0,0,1,.59-.64h2.42c.37,0,.5.2.67.52a1.42,1.42,0,0,0,1.41.67c1,0,1.43-.35,1.43-.84,0-1.78-6.45-.15-6.45-4.95,0-2.79,2.42-4,5-4,2.3,0,4.55,1.14,4.84,3.76a.53.53,0,0,1-.59.64H253.2c-.37,0-.5-.2-.67-.54a1.18,1.18,0,0,0-1.16-.65c-.92,0-1.31.35-1.31.84C250.06,14.19,256.51,12.49,256.51,17.31Z" transform="translate(0 -2.61)"/><path class="cls-1" d="M270.72,14.83c0,.33,0,.62,0,.92a.61.61,0,0,1-.67.57h-8.26a2.8,2.8,0,0,0,2.89,2.05,2.94,2.94,0,0,0,1.83-.62,1.14,1.14,0,0,1,.77-.32l2.37,0c.45,0,.69.29.5.69a5.67,5.67,0,0,1-5.52,3.26,6.35,6.35,0,0,1-6.72-6.53,6.38,6.38,0,0,1,6.63-6.52A6.2,6.2,0,0,1,270.72,14.83ZM267,13.5a2.46,2.46,0,0,0-2.56-1.9,2.62,2.62,0,0,0-2.73,1.9Z" transform="translate(0 -2.61)"/><path class="cls-1" d="M163.65,41.93a.56.56,0,0,1,.62.62v2.57a.56.56,0,0,1-.62.62H153a.56.56,0,0,1-.61-.62v-2a1.35,1.35,0,0,1,.22-.76L159,32.24h-5.88a.56.56,0,0,1-.62-.62V29.05a.56.56,0,0,1,.62-.62h10.38a.56.56,0,0,1,.62.62v2a1.41,1.41,0,0,1-.22.76l-6.41,10.09Z" transform="translate(0 -2.61)"/><path class="cls-1" d="M176.56,34V45.12a.56.56,0,0,1-.62.62h-2.47a.56.56,0,0,1-.62-.62v-.51a3.65,3.65,0,0,1-3.21,1.47c-2.3,0-4-1.78-4-4.87V34a.56.56,0,0,1,.62-.62h2.47a.56.56,0,0,1,.62.62v6.89a1.57,1.57,0,0,0,1.66,1.78c1.11,0,1.8-.62,1.8-2.07V34a.56.56,0,0,1,.62-.62h2.47A.56.56,0,0,1,176.56,34Z" transform="translate(0 -2.61)"/><path class="cls-1" d="M179.28,31.28V29.05a.56.56,0,0,1,.62-.62h2.47a.57.57,0,0,1,.62.62v2.23a.56.56,0,0,1-.62.61H179.9A.56.56,0,0,1,179.28,31.28Zm0,13.84V34a.56.56,0,0,1,.62-.62h2.47A.56.56,0,0,1,183,34V45.12a.57.57,0,0,1-.62.62H179.9A.56.56,0,0,1,179.28,45.12Z" transform="translate(0 -2.61)"/><path class="cls-1" d="M196.71,34.09l-4,11.15a.7.7,0,0,1-.69.5h-2.67a.71.71,0,0,1-.7-.5l-4-11.15a.49.49,0,0,1,.52-.71h2.65a.67.67,0,0,1,.69.52l2.2,7.08,2.2-7.08a.67.67,0,0,1,.69-.52h2.67C196.66,33.38,196.85,33.65,196.71,34.09Z" transform="translate(0 -2.61)"/><path class="cls-1" d="M210.18,39.56a8.92,8.92,0,0,1-.05.91.6.6,0,0,1-.67.57h-8.25a2.8,2.8,0,0,0,2.89,2.05,3,3,0,0,0,1.83-.62,1.16,1.16,0,0,1,.76-.32l2.38,0c.44,0,.69.29.49.69a5.66,5.66,0,0,1-5.51,3.26,6.53,6.53,0,1,1-.1-13A6.2,6.2,0,0,1,210.18,39.56Zm-3.69-1.34a2.47,2.47,0,0,0-2.56-1.9,2.63,2.63,0,0,0-2.74,1.9Z" transform="translate(0 -2.61)"/><path class="cls-1" d="M212.23,45.12V28.56a.56.56,0,0,1,.62-.62h2.47a.56.56,0,0,1,.62.62V45.12a.56.56,0,0,1-.62.62h-2.47A.57.57,0,0,1,212.23,45.12Z" transform="translate(0 -2.61)"/><path class="cls-1" d="M229.54,37.9v7.22a.56.56,0,0,1-.62.62h-2.47a.56.56,0,0,1-.62-.62v-6.9a1.57,1.57,0,0,0-1.66-1.78c-1.11,0-1.8.62-1.8,2.08v6.6a.56.56,0,0,1-.62.62h-2.47a.56.56,0,0,1-.62-.62V29.05a.56.56,0,0,1,.62-.62h2.47a.56.56,0,0,1,.62.62v5.46A3.66,3.66,0,0,1,225.58,33C227.88,33,229.54,34.81,229.54,37.9Z" transform="translate(0 -2.61)"/><path class="cls-1" d="M231.32,39.56a6.55,6.55,0,1,1,6.55,6.52A6.48,6.48,0,0,1,231.32,39.56Zm9.39,0a2.84,2.84,0,1,0-2.84,2.91A2.77,2.77,0,0,0,240.71,39.56Z" transform="translate(0 -2.61)"/><path class="cls-1" d="M258.76,39.56c0,.32,0,.61-.05.91A.6.6,0,0,1,258,41h-8.25a2.8,2.8,0,0,0,2.89,2.05,3,3,0,0,0,1.83-.62,1.14,1.14,0,0,1,.76-.32l2.38,0c.44,0,.69.29.49.69a5.66,5.66,0,0,1-5.51,3.26,6.53,6.53,0,1,1-.1-13A6.2,6.2,0,0,1,258.76,39.56Zm-3.69-1.34a2.48,2.48,0,0,0-2.56-1.9,2.63,2.63,0,0,0-2.74,1.9Z" transform="translate(0 -2.61)"/><path class="cls-1" d="M271.32,34.09l-4,11.15a.7.7,0,0,1-.69.5h-2.67a.69.69,0,0,1-.69-.5l-4-11.15c-.15-.44.07-.71.52-.71h2.64a.66.66,0,0,1,.69.52l2.2,7.08,2.2-7.08a.67.67,0,0,1,.69-.52h2.67C271.27,33.38,271.47,33.65,271.32,34.09Z" transform="translate(0 -2.61)"/><path class="cls-1" d="M284.79,39.56a8.92,8.92,0,0,1-.05.91.59.59,0,0,1-.66.57h-8.26a2.8,2.8,0,0,0,2.89,2.05,3,3,0,0,0,1.83-.62,1.18,1.18,0,0,1,.77-.32l2.37,0c.44,0,.69.29.49.69a5.66,5.66,0,0,1-5.51,3.26,6.53,6.53,0,1,1-.1-13A6.2,6.2,0,0,1,284.79,39.56Zm-3.69-1.34a2.47,2.47,0,0,0-2.56-1.9,2.64,2.64,0,0,0-2.74,1.9Z" transform="translate(0 -2.61)"/><path class="cls-1" d="M152.69,64.28a6.47,6.47,0,1,1,6.47,6.44A6.39,6.39,0,0,1,152.69,64.28Zm12.07,0a5.6,5.6,0,1,0-5.6,5.62A5.55,5.55,0,0,0,164.76,64.28Z" transform="translate(0 -2.61)"/><path class="cls-1" d="M168,64.28a6.47,6.47,0,1,1,6.47,6.44A6.39,6.39,0,0,1,168,64.28Zm12.06,0a5.6,5.6,0,1,0-5.59,5.62A5.54,5.54,0,0,0,180,64.28Z" transform="translate(0 -2.61)"/><path class="cls-1" d="M192.18,67.4c0,1.95-1.76,3.32-4.49,3.32s-4.35-1.33-4.48-3.26a.22.22,0,0,1,.25-.25h.38a.24.24,0,0,1,.25.23c.13,1.58,1.6,2.46,3.6,2.46s3.62-.87,3.62-2.5c0-4-7.86-1.55-7.86-6.24,0-1.95,1.68-3.32,4.24-3.32,2.41,0,4,1.33,4.17,3.26a.23.23,0,0,1-.25.26h-.38a.25.25,0,0,1-.25-.24c-.12-1.58-1.51-2.46-3.29-2.46s-3.37.87-3.37,2.5C184.32,65,192.18,62.63,192.18,67.4Z" transform="translate(0 -2.61)"/><path class="cls-1" d="M200.43,58.35v.33a.22.22,0,0,1-.24.24H197.6V70.21a.23.23,0,0,1-.25.25H197a.23.23,0,0,1-.25-.25V58.92h-2.59a.22.22,0,0,1-.25-.24v-.33a.23.23,0,0,1,.25-.25h2.59V54.39a.24.24,0,0,1,.25-.25h.38a.23.23,0,0,1,.25.25V58.1h2.59A.22.22,0,0,1,200.43,58.35Z" transform="translate(0 -2.61)"/><path class="cls-1" d="M211.47,62.26v7.95a.23.23,0,0,1-.25.25h-.38a.23.23,0,0,1-.25-.25V68.84c-.75,1.36-2.31,1.88-4.09,1.88-2.34,0-4.43-1.31-4.43-3.81s2.09-3.82,4.43-3.82A4.61,4.61,0,0,1,210.59,65v-2.7a3.34,3.34,0,0,0-3.57-3.6c-1.93,0-3.43,1-3.56,2.87a.25.25,0,0,1-.26.24h-.38a.22.22,0,0,1-.24-.26c.14-2.17,1.88-3.67,4.44-3.67A4.17,4.17,0,0,1,211.47,62.26Zm-4.84,7.66c2.14,0,4-.89,4-3s-1.9-3-4-3c-2.32,0-3.68,1.22-3.68,3s1.36,3,3.68,3Z" transform="translate(0 -2.61)"/><path class="cls-1" d="M223.73,70.46h-.56a.41.41,0,0,1-.3-.12l-6.76-6.06v5.93a.23.23,0,0,1-.25.25h-.38a.23.23,0,0,1-.25-.25V53.4a.22.22,0,0,1,.25-.24h.38a.22.22,0,0,1,.25.24V63.79l6.51-5.57a.39.39,0,0,1,.3-.12h.56c.22,0,.28.15.11.31L217,64l6.84,6.12C224,70.3,224,70.46,223.73,70.46Z" transform="translate(0 -2.61)"/><path class="cls-1" d="M235.4,70.46h-.56a.41.41,0,0,1-.3-.12l-6.76-6.06v5.93a.23.23,0,0,1-.25.25h-.38a.23.23,0,0,1-.25-.25V53.4a.22.22,0,0,1,.25-.24h.38a.22.22,0,0,1,.25.24V63.79l6.51-5.57a.39.39,0,0,1,.3-.12h.56c.22,0,.28.15.11.31L228.68,64l6.84,6.12C235.68,70.3,235.62,70.46,235.4,70.46Z" transform="translate(0 -2.61)"/><path class="cls-1" d="M248.6,64.33v.18a.23.23,0,0,1-.26.24h-11a5.23,5.23,0,0,0,5.38,5.15,4.66,4.66,0,0,0,4.43-2.51.32.32,0,0,1,.29-.18h.44c.19,0,.28.09.22.24a5.55,5.55,0,0,1-5.39,3.27,6.1,6.1,0,0,1-6.26-6.44,6.1,6.1,0,0,1,6.19-6.44C246.37,57.84,248.6,60.94,248.6,64.33Zm-11.29-.4h10.42c-.22-3.26-2.39-5.27-5.11-5.27A5.22,5.22,0,0,0,237.31,63.93Z" transform="translate(0 -2.61)"/><path class="cls-1" d="M256.8,58.18v.33c0,.15-.06.25-.17.25-2.2.07-4.18,1.66-4.18,4.83v6.62a.23.23,0,0,1-.25.25h-.38a.22.22,0,0,1-.24-.25V58.35a.22.22,0,0,1,.24-.25h.38a.23.23,0,0,1,.25.25v2.44a4.44,4.44,0,0,1,4.1-2.85A.22.22,0,0,1,256.8,58.18Z" transform="translate(0 -2.61)"/><path class="cls-2" d="M114.29,4.34c5.13.57,9.19,4.93,11,9.36a13.4,13.4,0,0,1-2.2,13.43,1.66,1.66,0,0,1-.73.58c-.78.26-1.49-.52-1.76-1.22a5.73,5.73,0,0,1,.61-5.23,7.13,7.13,0,0,1,4.87-2.94" transform="translate(0 -2.61)"/><path class="cls-3" d="M111.38,46.66a15.54,15.54,0,0,0-3.17-5.82,7.49,7.49,0,0,0-5.94-2.76c-3.45-.19-9.45,1.75-9.46,10.06,0,3.93-.06,22.6-2.09,22.59s-.33-15.9-2.52-23.55a15.43,15.43,0,0,0-3.36-6.57,8.58,8.58,0,0,0-7.18-2.73c-2.87.42-5,2.56-6.46,4.83-2.16,3.46-2.11,7.38-2.3,11.34-.19,4.19.67,16.69-1.25,16.69s-1.25-13-1.23-19.44a23.79,23.79,0,0,0-.77-7.38,9.1,9.1,0,0,0-4.92-5.73c-3.45-1.47-7.77-.27-10.5,2.13s-3.06,5.67-3.7,8.87c-1.08,5.29-.88,21.55-2.77,21.55s-.49-9.35-1-13.91a7.22,7.22,0,0,0-5-6.14,8.28,8.28,0,0,0-5.28.75,19.83,19.83,0,0,0-8.53,7.68l-4.33,9.11c-1.34,1.63-3.05,2-5,2.14-2.27.12-4.78.14-6.49-1.2-2.11-1.64-2-3.9-1.78-6.4l.92-9.3A7.31,7.31,0,0,0,6.7,49a17.11,17.11,0,0,0-3.25-3.68C1.76,43.76.1,42.58,1.39,40.61c1.4-2.14,3.9-.8,5.83.08s3.93,2.83,5.47,1.66C18.15,38.23,29.39,20,29.39,20a1.84,1.84,0,0,1,1-.83,1.5,1.5,0,0,1,1.14.25c1.53,1,1,3.11.52,4.75-.58,1.84-.5,4.51,2.09,4.54a4,4,0,0,0,1.46-.28c2.57-1,5.9-2.43,7.26-.16,2.21,3.67-7.68,9.4-3,9.33,4.32-.06,12.45-1.88,15.8-4.33A15.9,15.9,0,0,1,70,31c1.35.51,2.57,1.27,3.89,1.85,4.09,1.79,12,1.74,16.13,0a17,17,0,0,0,9.09-8.75c1-2.17,1.37-4.73.14-6.79-1.52-2.56-5.28-3.87-5-7.31.13-1.44.25-2.75,1.47-3.69,2.51-1.95,3.71-2.26,6.92-2.37a94.42,94.42,0,0,1,10.9.3l.7.09c.19,22.45,2.55,66.4.69,66.4C112.91,70.74,112.72,52.64,111.38,46.66Z" transform="translate(0 -2.61)"/><path class="cls-2" d="M36.38,10c.22-4.4,7.25-4.74,12.06-5.7s9.79-.76,14.71-.56l15.36.65a7.06,7.06,0,0,1,4.13,1c1,.77,1,.37,1.13,1.52a18.42,18.42,0,0,1-2.87,13c-1.34,2-3.22,5.63-5.81,5.26-1.44-.21-3-2.73-4-3.66-4.25-3.87-7.66-7.58-13.7-8.07-4.81-.39-9.18,2.56-14,3.07a6.6,6.6,0,0,1-3.67-.46S36.29,11.67,36.38,10Z" transform="translate(0 -2.61)"/></g></g></svg>