<svg xmlns="http://www.w3.org/2000/svg" viewBox="0 0 58.26 66.33"><defs><style>.cls-1{fill:#fff;}.cls-2,.cls-3{fill:none;stroke:#fff;stroke-width:0.84px;}.cls-2{stroke-miterlimit:10;}.cls-3{stroke-linecap:round;stroke-linejoin:round;}</style></defs><title>Asset 12logo</title><g id="Layer_2" data-name="Layer 2"><g id="Layer_1-2" data-name="Layer 1"><path class="cls-1" d="M7.62,40.65a3.69,3.69,0,0,1-3.7,3.81h-3a.25.25,0,0,1-.27-.27V37.11a.25.25,0,0,1,.27-.27h3A3.69,3.69,0,0,1,7.62,40.65Zm-1.68,0a2,2,0,0,0-2-2.13H2.39v4.26H3.92A2,2,0,0,0,5.94,40.65Z" transform="translate(-0.38)"/><path class="cls-1" d="M14,41.74c0,.14,0,.27,0,.4a.26.26,0,0,1-.3.25H10a1.23,1.23,0,0,0,1.27.9,1.27,1.27,0,0,0,.81-.27.52.52,0,0,1,.34-.14h1c.2,0,.3.13.22.31a2.51,2.51,0,0,1-2.43,1.43,2.87,2.87,0,1,1,0-5.74A2.73,2.73,0,0,1,14,41.74Zm-1.62-.59a1.09,1.09,0,0,0-1.13-.84,1.17,1.17,0,0,0-1.21.84Z" transform="translate(-0.38)"/><path class="cls-1" d="M25,40.56v3.63a.25.25,0,0,1-.27.27H23.66a.25.25,0,0,1-.27-.27v-.62a2.75,2.75,0,0,1-2.32,1,3.79,3.79,0,0,1-3.74-4,3.86,3.86,0,0,1,4-4,3.78,3.78,0,0,1,3.64,2.46c.07.18,0,.3-.22.3H23.42a.32.32,0,0,1-.31-.19,2.18,2.18,0,0,0-1.82-.87,2.11,2.11,0,0,0-2.22,2.26A2.17,2.17,0,0,0,21.29,43a1.91,1.91,0,0,0,1.94-1.2H21.59a.25.25,0,0,1-.27-.28v-1a.25.25,0,0,1,.27-.27h3.16A.25.25,0,0,1,25,40.56Z" transform="translate(-0.38)"/><path class="cls-1" d="M31.49,41.74c0,.14,0,.27,0,.4a.26.26,0,0,1-.29.25H27.55a1.22,1.22,0,0,0,1.27.9,1.25,1.25,0,0,0,.8-.27.54.54,0,0,1,.34-.14h1c.2,0,.31.13.22.31a2.49,2.49,0,0,1-2.42,1.43,2.87,2.87,0,1,1-.05-5.74A2.73,2.73,0,0,1,31.49,41.74Zm-1.62-.59a1.09,1.09,0,0,0-1.13-.84,1.16,1.16,0,0,0-1.2.84Z" transform="translate(-0.38)"/><path class="cls-1" d="M37.18,41v3.18a.24.24,0,0,1-.27.27H35.82a.25.25,0,0,1-.27-.27v-3a.69.69,0,0,0-.73-.78c-.49,0-.79.27-.79.91v2.91a.25.25,0,0,1-.27.27H32.67a.25.25,0,0,1-.27-.27v-4.9a.25.25,0,0,1,.27-.27h1.09a.25.25,0,0,1,.27.27v.23a1.61,1.61,0,0,1,1.41-.65C36.46,38.87,37.18,39.65,37.18,41Z" transform="translate(-0.38)"/><path class="cls-1" d="M41.18,39.29v1a.25.25,0,0,1-.28.28h-.59v3.6a.25.25,0,0,1-.28.27H39a.25.25,0,0,1-.28-.27v-3.6h-.59a.25.25,0,0,1-.28-.28v-1a.25.25,0,0,1,.28-.27h.59V37.55a.25.25,0,0,1,.28-.27H40a.25.25,0,0,1,.28.27V39h.59A.25.25,0,0,1,41.18,39.29Z" transform="translate(-0.38)"/><path class="cls-1" d="M46.19,42.83c0,1.25-1.06,1.78-2.26,1.78A2,2,0,0,1,41.69,43a.24.24,0,0,1,.26-.29H43c.17,0,.22.09.3.23a.62.62,0,0,0,.62.3c.46,0,.63-.16.63-.37,0-.79-2.84-.07-2.84-2.18,0-1.23,1.07-1.78,2.21-1.78a1.94,1.94,0,0,1,2.13,1.65.23.23,0,0,1-.26.28H44.73c-.16,0-.21-.08-.29-.24a.53.53,0,0,0-.51-.28c-.4,0-.58.15-.58.37C43.35,41.46,46.19,40.71,46.19,42.83Z" transform="translate(-0.38)"/><path class="cls-1" d="M52.45,41.74c0,.14,0,.27,0,.4a.27.27,0,0,1-.3.25H48.5a1.22,1.22,0,0,0,1.27.9,1.27,1.27,0,0,0,.81-.27.52.52,0,0,1,.33-.14H52c.19,0,.3.13.22.31a2.51,2.51,0,0,1-2.43,1.43,2.87,2.87,0,1,1,0-5.74A2.73,2.73,0,0,1,52.45,41.74Zm-1.63-.59a1.08,1.08,0,0,0-1.12-.84,1.16,1.16,0,0,0-1.21.84Z" transform="translate(-0.38)"/><path class="cls-1" d="M5.33,53.66a.25.25,0,0,1,.27.27v1.14a.25.25,0,0,1-.27.27H.65a.25.25,0,0,1-.27-.27v-.9a.56.56,0,0,1,.1-.33L3.3,49.4H.71a.24.24,0,0,1-.27-.27V48a.24.24,0,0,1,.27-.27H5.28a.25.25,0,0,1,.27.27v.9a.56.56,0,0,1-.1.33L2.63,53.66Z" transform="translate(-0.38)"/><path class="cls-1" d="M11,50.17v4.9a.25.25,0,0,1-.27.27H9.65a.25.25,0,0,1-.27-.27v-.23A1.62,1.62,0,0,1,8,55.49c-1,0-1.74-.78-1.74-2.14V50.17a.25.25,0,0,1,.27-.27H7.58a.24.24,0,0,1,.27.27v3a.69.69,0,0,0,.73.78c.49,0,.8-.27.8-.92v-2.9a.25.25,0,0,1,.27-.27h1.09A.25.25,0,0,1,11,50.17Z" transform="translate(-0.38)"/><path class="cls-1" d="M12.21,49V48a.24.24,0,0,1,.27-.27h1.09a.25.25,0,0,1,.27.27v1a.24.24,0,0,1-.27.27H12.48A.24.24,0,0,1,12.21,49Zm0,6.1v-4.9a.24.24,0,0,1,.27-.27h1.09a.25.25,0,0,1,.27.27v4.9a.25.25,0,0,1-.27.27H12.48A.24.24,0,0,1,12.21,55.07Z" transform="translate(-0.38)"/><path class="cls-1" d="M19.88,50.21,18.1,55.12a.3.3,0,0,1-.3.22H16.62a.3.3,0,0,1-.3-.22l-1.78-4.91a.22.22,0,0,1,.23-.31h1.17a.28.28,0,0,1,.3.23l1,3.12,1-3.12a.28.28,0,0,1,.3-.23h1.18C19.85,49.9,19.94,50,19.88,50.21Z" transform="translate(-0.38)"/><path class="cls-1" d="M25.8,52.62c0,.14,0,.27,0,.4a.26.26,0,0,1-.29.25H21.86a1.22,1.22,0,0,0,1.27.9,1.3,1.3,0,0,0,.8-.27.49.49,0,0,1,.34-.14h1.05c.19,0,.3.13.21.3a2.48,2.48,0,0,1-2.42,1.44,2.87,2.87,0,1,1-.05-5.74A2.72,2.72,0,0,1,25.8,52.62ZM24.18,52a1.09,1.09,0,0,0-1.13-.84,1.16,1.16,0,0,0-1.2.84Z" transform="translate(-0.38)"/><path class="cls-1" d="M26.71,55.07V47.78A.25.25,0,0,1,27,47.5h1.09a.25.25,0,0,1,.27.28v7.29a.25.25,0,0,1-.27.27H27A.25.25,0,0,1,26.71,55.07Z" transform="translate(-0.38)"/><path class="cls-1" d="M34.32,51.89v3.18a.25.25,0,0,1-.27.27H33a.25.25,0,0,1-.27-.27V52a.69.69,0,0,0-.73-.78c-.49,0-.79.27-.79.91v2.91a.25.25,0,0,1-.27.27H29.81a.24.24,0,0,1-.27-.27V48a.24.24,0,0,1,.27-.27H30.9a.25.25,0,0,1,.27.27v2.4a1.62,1.62,0,0,1,1.41-.64C33.59,49.75,34.32,50.53,34.32,51.89Z" transform="translate(-0.38)"/><path class="cls-1" d="M35.11,52.62A2.88,2.88,0,1,1,38,55.49,2.85,2.85,0,0,1,35.11,52.62Zm4.13,0A1.25,1.25,0,1,0,38,53.9,1.22,1.22,0,0,0,39.24,52.62Z" transform="translate(-0.38)"/><path class="cls-1" d="M47.18,52.62c0,.14,0,.27,0,.4a.26.26,0,0,1-.29.25H43.23a1.23,1.23,0,0,0,1.28.9,1.3,1.3,0,0,0,.8-.27.49.49,0,0,1,.34-.14h1c.2,0,.31.13.22.3a2.49,2.49,0,0,1-2.43,1.44,2.87,2.87,0,1,1,0-5.74A2.72,2.72,0,0,1,47.18,52.62ZM45.56,52a1.09,1.09,0,0,0-1.13-.84,1.15,1.15,0,0,0-1.2.84Z" transform="translate(-0.38)"/><path class="cls-1" d="M52.71,50.21l-1.78,4.91a.3.3,0,0,1-.3.22H49.46a.31.31,0,0,1-.31-.22l-1.77-4.91c-.07-.19,0-.31.23-.31h1.16a.28.28,0,0,1,.3.23l1,3.12,1-3.12a.29.29,0,0,1,.31-.23h1.17C52.69,49.9,52.77,50,52.71,50.21Z" transform="translate(-0.38)"/><path class="cls-1" d="M58.64,52.62c0,.14,0,.27,0,.4a.28.28,0,0,1-.3.25H54.69a1.22,1.22,0,0,0,1.27.9,1.33,1.33,0,0,0,.81-.27.47.47,0,0,1,.33-.14h1c.19,0,.3.13.22.3a2.5,2.5,0,0,1-2.43,1.44,2.87,2.87,0,1,1,0-5.74A2.73,2.73,0,0,1,58.64,52.62ZM57,52a1.09,1.09,0,0,0-1.13-.84,1.16,1.16,0,0,0-1.2.84Z" transform="translate(-0.38)"/><path class="cls-1" d="M.51,63.5a2.81,2.81,0,0,1,2.84-2.84,2.84,2.84,0,1,1,0,5.67A2.8,2.8,0,0,1,.51,63.5Zm5.31,0A2.45,2.45,0,0,0,3.35,61a2.48,2.48,0,0,0,0,4.95A2.44,2.44,0,0,0,5.82,63.5Z" transform="translate(-0.38)"/><path class="cls-1" d="M7.22,63.5a2.85,2.85,0,1,1,2.85,2.83A2.82,2.82,0,0,1,7.22,63.5Zm5.31,0A2.47,2.47,0,1,0,10.07,66,2.44,2.44,0,0,0,12.53,63.5Z" transform="translate(-0.38)"/><path class="cls-1" d="M17.88,64.87c0,.86-.77,1.46-2,1.46s-1.92-.58-2-1.43a.1.1,0,0,1,.1-.12h.17c.07,0,.1,0,.11.11.06.69.71,1.08,1.59,1.08s1.59-.38,1.59-1.1c0-1.74-3.46-.68-3.46-2.75,0-.85.74-1.46,1.87-1.46a1.63,1.63,0,0,1,1.83,1.44c0,.07,0,.11-.11.11h-.16c-.07,0-.1,0-.11-.11-.06-.69-.67-1.08-1.45-1.08s-1.48.38-1.48,1.1C14.43,63.83,17.88,62.77,17.88,64.87Z" transform="translate(-0.38)"/><path class="cls-1" d="M21.51,60.89V61a.1.1,0,0,1-.1.11H20.27v5a.1.1,0,0,1-.11.11H20a.1.1,0,0,1-.11-.11v-5H18.74a.1.1,0,0,1-.11-.11v-.14a.1.1,0,0,1,.11-.11h1.14V59.14A.1.1,0,0,1,20,59h.17a.1.1,0,0,1,.11.1v1.64h1.14A.1.1,0,0,1,21.51,60.89Z" transform="translate(-0.38)"/><path class="cls-1" d="M24.41,60.66a1.84,1.84,0,0,1,2,2v3.5a.1.1,0,0,1-.11.11h-.17a.1.1,0,0,1-.1-.11V65.5a1.93,1.93,0,0,1-1.81.83,1.7,1.7,0,1,1,0-3.36,2.06,2.06,0,0,1,1.81.82V62.61A1.48,1.48,0,0,0,24.41,61a1.4,1.4,0,0,0-1.56,1.27c0,.06-.05.1-.12.1h-.16c-.07,0-.12,0-.11-.11a1.77,1.77,0,0,1,1.95-1.62Zm1.58,4c0-.94-.84-1.32-1.75-1.32s-1.62.54-1.62,1.32S23.22,66,24.24,66,26,65.59,26,64.65Z" transform="translate(-0.38)"/><path class="cls-1" d="M31.77,66.22h-.25a.18.18,0,0,1-.13-.06l-3-2.66v2.61a.1.1,0,0,1-.11.11h-.16a.1.1,0,0,1-.11-.11v-7.4a.1.1,0,0,1,.11-.11h.16a.1.1,0,0,1,.11.11v4.57l2.87-2.45a.17.17,0,0,1,.13,0h.25c.1,0,.12.06.05.13l-2.9,2.48,3,2.69C31.89,66.15,31.87,66.22,31.77,66.22Z" transform="translate(-0.38)"/><path class="cls-1" d="M36.9,66.22h-.24a.18.18,0,0,1-.14-.06l-3-2.66v2.61a.1.1,0,0,1-.11.11h-.17a.1.1,0,0,1-.11-.11v-7.4a.1.1,0,0,1,.11-.11h.17a.1.1,0,0,1,.11.11v4.57l2.86-2.45a.17.17,0,0,1,.14,0h.24c.1,0,.13.06.05.13L34,63.39l3,2.69C37,66.15,37,66.22,36.9,66.22Z" transform="translate(-0.38)"/><path class="cls-1" d="M42.71,63.52v.08c0,.07,0,.1-.11.1H37.75A2.29,2.29,0,0,0,40.11,66a2.05,2.05,0,0,0,2-1.11.12.12,0,0,1,.12-.08h.2c.08,0,.12,0,.09.11a2.43,2.43,0,0,1-2.37,1.44,2.84,2.84,0,1,1,2.6-2.81Zm-5-.18h4.59a2.3,2.3,0,1,0-4.59,0Z" transform="translate(-0.38)"/><path class="cls-1" d="M46.32,60.81V61c0,.06,0,.11-.08.11a1.91,1.91,0,0,0-1.84,2.12v2.92a.1.1,0,0,1-.1.11h-.17a.1.1,0,0,1-.11-.11V60.89a.1.1,0,0,1,.11-.11h.17a.1.1,0,0,1,.1.11V62a2,2,0,0,1,1.81-1.25A.09.09,0,0,1,46.32,60.81Z" transform="translate(-0.38)"/><path class="cls-2" d="M52.29.78C54.61,1,56.45,3,57.26,5a6.07,6.07,0,0,1-1,6.08.79.79,0,0,1-.33.27c-.35.11-.68-.24-.8-.56a2.6,2.6,0,0,1,.28-2.37,3.23,3.23,0,0,1,2.21-1.33" transform="translate(-0.38)"/><path class="cls-3" d="M51,20a7,7,0,0,0-1.44-2.63,3.4,3.4,0,0,0-2.69-1.26c-1.56-.08-4.28.8-4.29,4.56,0,1.78,0,10.25-.94,10.24s-.16-7.2-1.15-10.67a7,7,0,0,0-1.52-3A3.87,3.87,0,0,0,35.69,16a4.36,4.36,0,0,0-2.93,2.18c-1,1.57-1,3.35-1,5.14s.3,7.57-.57,7.57-.57-5.88-.56-8.81a10.77,10.77,0,0,0-.35-3.35A4.09,4.09,0,0,0,28,16.13a4.73,4.73,0,0,0-4.76,1c-1.21,1.06-1.38,2.57-1.67,4-.49,2.4-.4,9.77-1.26,9.76s-.22-4.23-.47-6.3a3.29,3.29,0,0,0-2.28-2.78,3.69,3.69,0,0,0-2.39.34,9,9,0,0,0-3.87,3.48l-2,4.13a2.87,2.87,0,0,1-2.27,1,4.46,4.46,0,0,1-2.94-.54c-1-.75-.92-1.77-.81-2.91l.42-4.21a3.29,3.29,0,0,0-.22-2,7.78,7.78,0,0,0-1.48-1.67c-.76-.72-1.51-1.26-.93-2.15s1.77-.36,2.64,0,1.78,1.28,2.48.75c2.48-1.87,7.57-10.15,7.57-10.15a.84.84,0,0,1,.45-.38.66.66,0,0,1,.51.12c.7.45.47,1.4.24,2.15s-.22,2,1,2.05a1.65,1.65,0,0,0,.66-.12c1.16-.47,2.67-1.1,3.29-.07,1,1.66-3.48,4.25-1.37,4.22s5.65-.85,7.16-2a7.22,7.22,0,0,1,6.52-1c.62.23,1.17.58,1.76.84a11.6,11.6,0,0,0,7.32,0,7.65,7.65,0,0,0,4.11-4,3.33,3.33,0,0,0,.07-3.07c-.69-1.16-2.39-1.76-2.25-3.32a2.1,2.1,0,0,1,.66-1.67A4.29,4.29,0,0,1,47,.61,42.83,42.83,0,0,1,52,.74l.32,0c.08,10.18,1.15,30.1.31,30.1S51.57,22.67,51,20Z" transform="translate(-0.38)"/><path class="cls-2" d="M17,3.34c.1-2,3.28-2.15,5.46-2.59A28,28,0,0,1,29.11.5l7,.29a3.24,3.24,0,0,1,1.87.47c.44.36.43.17.52.69a8.41,8.41,0,0,1-1.31,5.91c-.6.91-1.46,2.55-2.63,2.38-.65-.1-1.35-1.24-1.81-1.66-1.93-1.76-3.47-3.44-6.21-3.66-2.18-.17-4.16,1.16-6.33,1.39A3,3,0,0,1,18.5,6.1S16.94,4.11,17,3.34Z" transform="translate(-0.38)"/></g></g></svg>